<svg width="1751" height="990" viewBox="0 0 1751 990" fill="none" xmlns="http://www.w3.org/2000/svg">
<g clip-path="url(#clip0_60_102)">
<mask id="mask0_60_102" style="mask-type:luminance" maskUnits="userSpaceOnUse" x="0" y="-75" width="1751" height="991">
<path d="M-6.10352e-05 915.75H1751V-74.25H-6.10352e-05V915.75Z" fill="white"/>
</mask>
<g mask="url(#mask0_60_102)">
<path d="M367.127 746.391H347.784V745.151C351.253 745.151 353.487 741.545 353.487 735.991V699.65C353.487 694.626 351.312 690.49 347.784 690.49V689.25H367.127C383.176 689.25 400.049 694.213 400.049 718.027C400.049 742.195 383.176 746.391 367.127 746.391ZM367.127 690.49H363.599V745.151H367.127C375.358 745.151 388.114 744.146 388.114 718.027C388.114 692.263 375.534 690.49 367.127 690.49Z" fill="#6F7073"/>
</g>
<mask id="mask1_60_102" style="mask-type:luminance" maskUnits="userSpaceOnUse" x="0" y="-75" width="1751" height="991">
<path d="M-6.10352e-05 915.75H1751V-74.25H-6.10352e-05V915.75Z" fill="white"/>
</mask>
<g mask="url(#mask1_60_102)">
<path d="M423.529 746.391H408.538V745.151C411.595 744.205 411.712 741.841 411.712 737.705V717.437C411.712 714.659 410.948 713.537 407.656 712.177V710.936L420.236 708.159V737.705C420.236 742.195 420.649 744.382 423.529 745.151V746.391ZM410.36 696.754C410.36 694.095 412.476 691.849 415.122 691.849C417.826 691.849 420.06 694.095 420.06 696.754C420.06 699.413 417.826 701.54 415.122 701.54C412.476 701.54 410.36 699.413 410.36 696.754Z" fill="#6F7073"/>
</g>
<mask id="mask2_60_102" style="mask-type:luminance" maskUnits="userSpaceOnUse" x="0" y="-75" width="1751" height="991">
<path d="M-6.10352e-05 915.75H1751V-74.25H-6.10352e-05V915.75Z" fill="white"/>
</mask>
<g mask="url(#mask2_60_102)">
<path d="M467.118 741.522C466.531 744.063 463.296 747.135 458.652 747.135C458.652 747.135 451.95 747.194 451.185 740.399C450.069 744.121 445.307 747.135 439.663 747.135C439.663 747.135 430.374 747.135 430.374 738.862C430.374 730.353 437.194 729.054 451.127 725.448V720.603C451.127 712.212 446.776 707.78 440.721 710.675C437.899 712.153 437.487 713.631 437.958 713.689C439.134 713.867 440.015 714.34 440.721 715.344C442.073 717.176 441.603 719.776 439.722 721.135C437.899 722.436 435.254 722.021 433.96 720.189C432.96 718.83 432.902 716.999 433.607 715.699C434.372 714.398 435.548 712.153 439.899 709.789C443.484 707.957 447.599 708.194 447.599 708.194C457.3 708.194 459.828 714.813 459.828 724.385V737.386C459.828 737.386 459.828 742.762 463.649 742.762C463.649 742.762 465.413 742.762 465.884 741.049L467.118 741.522ZM439.192 736.971C439.192 738.095 439.899 742.822 445.013 742.822C448.481 742.822 450.422 740.281 451.127 738.331V726.867C442.485 728.817 439.192 732.421 439.192 736.971Z" fill="#6F7073"/>
</g>
<mask id="mask3_60_102" style="mask-type:luminance" maskUnits="userSpaceOnUse" x="0" y="-75" width="1751" height="991">
<path d="M-6.10352e-05 915.75H1751V-74.25H-6.10352e-05V915.75Z" fill="white"/>
</mask>
<g mask="url(#mask3_60_102)">
<path d="M531.751 746.391H516.641V745.151C519.698 744.263 519.875 741.841 519.875 737.705V721.1C519.875 715.899 517.641 713.122 513.29 713.122C509.704 713.122 506.235 717.022 506.235 720.095V721.158L506.353 737.705C506.353 742.195 506.706 744.442 509.646 745.151V746.391H494.536V745.151C497.593 744.263 497.769 741.841 497.769 737.705V721.1C497.769 715.899 495.594 713.122 491.243 713.122C487.657 713.122 484.424 717.081 484.13 719.976V737.763C484.13 742.255 484.6 744.382 487.423 745.151V746.391H472.431V745.151C475.488 744.263 475.546 741.959 475.546 737.763V717.731C475.546 714.896 474.841 713.537 471.548 712.177V710.936L484.13 708.159V716.549C486.129 711.822 490.891 708.159 496.006 708.159C501.65 708.159 505.119 710.758 506.177 716.845C507.763 711.882 512.937 708.159 518.053 708.159C524.461 708.159 528.458 710.996 528.458 720.864V737.705C528.458 742.195 528.87 744.442 531.751 745.151V746.391Z" fill="#6F7073"/>
</g>
<mask id="mask4_60_102" style="mask-type:luminance" maskUnits="userSpaceOnUse" x="0" y="-75" width="1751" height="991">
<path d="M-6.10352e-05 915.75H1751V-74.25H-6.10352e-05V915.75Z" fill="white"/>
</mask>
<g mask="url(#mask4_60_102)">
<path d="M557.071 747.118C544.784 747.118 538.2 738.254 538.2 727.677C538.2 716.921 544.784 708.176 557.071 708.176C569.416 708.176 576.059 716.921 576.059 727.677C576.059 738.254 569.416 747.118 557.071 747.118ZM557.071 709.417C551.075 709.417 548.252 712.963 548.252 727.677C548.252 742.331 551.075 745.877 557.071 745.877C563.126 745.877 565.889 742.331 565.889 727.677C565.889 712.963 563.126 709.417 557.071 709.417Z" fill="#6F7073"/>
</g>
<mask id="mask5_60_102" style="mask-type:luminance" maskUnits="userSpaceOnUse" x="0" y="-75" width="1751" height="991">
<path d="M-6.10352e-05 915.75H1751V-74.25H-6.10352e-05V915.75Z" fill="white"/>
</mask>
<g mask="url(#mask5_60_102)">
<path d="M621.071 746.391H605.961V745.151C609.019 744.263 609.196 741.841 609.196 737.705V721.1C609.196 716.372 606.491 713.122 601.788 713.122C598.143 713.122 594.498 716.845 594.204 719.976V737.763C594.204 742.255 594.675 744.382 597.496 745.151V746.391H582.504V745.151C585.562 744.263 585.62 741.959 585.62 737.763V717.377C585.62 714.481 584.915 713.537 581.622 712.177V710.936L594.204 708.159V716.786C595.967 711.882 602.023 708.159 607.079 708.159C613.487 708.159 617.779 710.996 617.779 720.864V737.705C617.779 742.195 618.19 744.442 621.071 745.151V746.391Z" fill="#6F7073"/>
</g>
<mask id="mask6_60_102" style="mask-type:luminance" maskUnits="userSpaceOnUse" x="0" y="-75" width="1751" height="991">
<path d="M-6.10352e-05 915.75H1751V-74.25H-6.10352e-05V915.75Z" fill="white"/>
</mask>
<g mask="url(#mask6_60_102)">
<path d="M668.849 745.416L658.502 747.071C656.268 747.366 656.268 745.593 656.268 745.593V740.866C653.681 745.357 648.037 747.13 644.157 747.13C634.163 747.13 627.05 739.152 627.05 727.157C627.05 714.275 635.456 708.188 646.391 708.188C650.271 708.188 653.681 709.252 656.268 710.847V694.716C656.268 691.879 655.445 690.874 652.152 689.988V688.806L664.734 686.206V739.271C664.734 743.23 665.556 743.938 668.849 744.176V745.416ZM656.268 722.075C656.268 713.033 651.329 709.37 646.567 709.37C640.924 709.37 636.984 713.506 636.984 726.211C636.984 739.152 640.335 744.53 647.156 744.53C652.564 744.53 656.268 740.57 656.268 734.898V722.075Z" fill="#6F7073"/>
</g>
<mask id="mask7_60_102" style="mask-type:luminance" maskUnits="userSpaceOnUse" x="0" y="-75" width="1751" height="991">
<path d="M-6.10352e-05 915.75H1751V-74.25H-6.10352e-05V915.75Z" fill="white"/>
</mask>
<g mask="url(#mask7_60_102)">
<path d="M758.973 736.984C758.973 743.543 754.152 746.616 749.684 747.148C749.684 747.148 741.689 747.856 738.456 743.07L733.929 736.393C730.872 745.67 714.352 752.584 706.239 741.297C698.184 730.188 708.767 721.265 715.175 717.483L719.172 715.061L714.881 708.561C707.297 698.042 712.411 687.878 721.407 686.342C726.874 685.396 730.636 686.874 733.164 689.71C736.28 693.433 739.808 703.006 727.579 711.751L737.749 726.938C740.806 720.084 744.922 718.546 747.038 718.075C748.743 717.66 750.978 717.837 752.447 719.079C754.388 720.616 754.799 723.57 752.917 725.638C751.331 727.588 748.332 727.883 746.275 726.169C745.333 725.283 744.863 724.338 744.746 723.038C744.746 721.324 740.395 722.624 738.396 727.883L744.746 737.161C747.274 740.884 751.447 740.884 751.447 740.884C754.27 740.884 757.092 739.998 757.739 736.984H758.973ZM733.047 735.211L719.937 716.124L715.88 718.725C711.353 721.975 708.178 730.011 714.47 737.87C718.879 743.306 729.107 743.72 733.047 735.211ZM721.054 702.001L726.874 710.629C737.397 703.656 735.575 695.028 731.988 690.597C729.636 688.233 726.286 687.169 723.406 688.233C719.172 689.71 717.174 696.269 721.054 702.001Z" fill="#6F7073"/>
</g>
<mask id="mask8_60_102" style="mask-type:luminance" maskUnits="userSpaceOnUse" x="0" y="-75" width="1751" height="991">
<path d="M-6.10352e-05 915.75H1751V-74.25H-6.10352e-05V915.75Z" fill="white"/>
</mask>
<g mask="url(#mask8_60_102)">
<path d="M832.401 729.107V746.362H789.368V745.18C792.778 745.18 793.895 741.635 793.895 736.08V699.148C793.895 694.124 792.954 690.52 789.368 690.52V689.278H831.343V704.288H830.168C828.756 690.579 810.826 690.52 807.534 690.52H803.889V716.933H807.946C809.062 716.933 819.468 716.933 820.114 708.661H821.349V726.507H820.114C819.468 718.175 809.004 718.175 807.946 718.175H803.889V745.18H807.239C810.767 745.18 828.639 745.357 831.167 729.107H832.401Z" fill="#6F7073"/>
</g>
<mask id="mask9_60_102" style="mask-type:luminance" maskUnits="userSpaceOnUse" x="0" y="-75" width="1751" height="991">
<path d="M-6.10352e-05 915.75H1751V-74.25H-6.10352e-05V915.75Z" fill="white"/>
</mask>
<g mask="url(#mask9_60_102)">
<path d="M899.786 746.391H884.677V745.151C887.734 744.263 887.91 741.841 887.91 737.705V721.1C887.91 715.899 885.676 713.122 881.325 713.122C877.739 713.122 874.27 717.022 874.27 720.095V721.158L874.388 737.705C874.388 742.195 874.741 744.442 877.681 745.151V746.391H862.571V745.151C865.628 744.263 865.805 741.841 865.805 737.705V721.1C865.805 715.899 863.629 713.122 859.279 713.122C855.693 713.122 852.459 717.081 852.165 719.976V737.763C852.165 742.255 852.636 744.382 855.458 745.151V746.391H840.466V745.151C843.523 744.263 843.582 741.959 843.582 737.763V717.731C843.582 714.896 842.876 713.537 839.583 712.177V710.936L852.165 708.159V716.549C854.164 711.822 858.926 708.159 864.041 708.159C869.685 708.159 873.154 710.758 874.212 716.845C875.799 711.882 880.973 708.159 886.088 708.159C892.496 708.159 896.493 710.996 896.493 720.864V737.705C896.493 742.195 896.906 744.442 899.786 745.151V746.391Z" fill="#6F7073"/>
</g>
<mask id="mask10_60_102" style="mask-type:luminance" maskUnits="userSpaceOnUse" x="0" y="-75" width="1751" height="991">
<path d="M-6.10352e-05 915.75H1751V-74.25H-6.10352e-05V915.75Z" fill="white"/>
</mask>
<g mask="url(#mask10_60_102)">
<path d="M939.227 736.653C938.169 740.612 933.524 747.113 923.354 747.113C913.066 747.113 905.834 738.012 905.834 727.907C905.834 716.207 913.478 708.17 924.059 708.17C934.642 708.17 940.521 714.198 940.521 726.903H914.83C915.359 736.357 919.768 740.612 925.588 741.499C930.291 742.266 936.347 739.961 938.11 736.062L939.227 736.653ZM932.114 725.721C932.114 714.671 927.881 709.412 923.707 709.412C919.063 709.412 914.83 716.679 914.83 725.721H932.114Z" fill="#6F7073"/>
</g>
<mask id="mask11_60_102" style="mask-type:luminance" maskUnits="userSpaceOnUse" x="0" y="-75" width="1751" height="991">
<path d="M-6.10352e-05 915.75H1751V-74.25H-6.10352e-05V915.75Z" fill="white"/>
</mask>
<g mask="url(#mask11_60_102)">
<path d="M974.732 709.801C976.731 711.811 976.731 715.179 974.732 717.189C972.733 719.197 969.499 719.315 967.324 717.247C966.324 716.243 965.854 714.942 965.913 713.702C966.09 712.578 961.739 713.937 958.975 719.079V737.634C958.975 742.184 959.387 744.371 962.268 745.197V746.379H947.1V745.197C950.215 744.194 950.333 741.83 950.333 737.634V717.366C950.333 714.588 949.628 713.347 946.335 712.165V710.925L958.975 708.147V716.951C962.62 710.865 966.559 709.151 969.147 708.501C970.793 708.088 973.261 708.442 974.732 709.801Z" fill="#6F7073"/>
</g>
<mask id="mask12_60_102" style="mask-type:luminance" maskUnits="userSpaceOnUse" x="0" y="-75" width="1751" height="991">
<path d="M-6.10352e-05 915.75H1751V-74.25H-6.10352e-05V915.75Z" fill="white"/>
</mask>
<g mask="url(#mask12_60_102)">
<path d="M1018.07 741.522C1017.48 744.063 1014.25 747.135 1009.61 747.135C1009.61 747.135 1002.9 747.194 1002.14 740.399C1001.02 744.121 996.26 747.135 990.616 747.135C990.616 747.135 981.327 747.135 981.327 738.862C981.327 730.353 988.147 729.054 1002.08 725.448V720.603C1002.08 712.212 997.729 707.78 991.674 710.675C988.852 712.153 988.44 713.631 988.911 713.689C990.087 713.867 990.968 714.34 991.674 715.344C993.027 717.176 992.556 719.776 990.675 721.135C988.852 722.436 986.207 722.021 984.913 720.189C983.913 718.83 983.855 716.999 984.56 715.699C985.325 714.398 986.501 712.153 990.852 709.789C994.437 707.957 998.552 708.194 998.552 708.194C1008.25 708.194 1010.78 714.813 1010.78 724.385V737.386C1010.78 737.386 1010.78 742.762 1014.6 742.762C1014.6 742.762 1016.37 742.762 1016.84 741.049L1018.07 741.522ZM990.145 736.971C990.145 738.095 990.852 742.822 995.966 742.822C999.435 742.822 1001.37 740.281 1002.08 738.331V726.867C993.438 728.817 990.145 732.421 990.145 736.971Z" fill="#6F7073"/>
</g>
<mask id="mask13_60_102" style="mask-type:luminance" maskUnits="userSpaceOnUse" x="0" y="-75" width="1751" height="991">
<path d="M-6.10352e-05 915.75H1751V-74.25H-6.10352e-05V915.75Z" fill="white"/>
</mask>
<g mask="url(#mask13_60_102)">
<path d="M1038.96 746.391H1023.85V745.151C1026.91 744.263 1027.09 741.841 1027.09 737.705V694.981C1027.09 692.085 1026.38 690.903 1023.09 690.017V688.777L1035.67 686.176V737.705C1035.67 742.195 1036.08 744.442 1038.96 745.151V746.391Z" fill="#6F7073"/>
</g>
<mask id="mask14_60_102" style="mask-type:luminance" maskUnits="userSpaceOnUse" x="0" y="-75" width="1751" height="991">
<path d="M-6.10352e-05 915.75H1751V-74.25H-6.10352e-05V915.75Z" fill="white"/>
</mask>
<g mask="url(#mask14_60_102)">
<path d="M1086.9 745.416L1076.55 747.071C1074.32 747.366 1074.32 745.593 1074.32 745.593V740.866C1071.73 745.357 1066.09 747.13 1062.21 747.13C1052.22 747.13 1045.1 739.152 1045.1 727.157C1045.1 714.275 1053.51 708.188 1064.44 708.188C1068.32 708.188 1071.73 709.252 1074.32 710.847V694.716C1074.32 691.879 1073.5 690.874 1070.2 689.988V688.806L1082.79 686.206V739.271C1082.79 743.23 1083.61 743.938 1086.9 744.176V745.416ZM1074.32 722.075C1074.32 713.033 1069.38 709.37 1064.62 709.37C1058.98 709.37 1055.04 713.506 1055.04 726.211C1055.04 739.152 1058.39 744.53 1065.21 744.53C1070.62 744.53 1074.32 740.57 1074.32 734.898V722.075Z" fill="#6F7073"/>
</g>
<mask id="mask15_60_102" style="mask-type:luminance" maskUnits="userSpaceOnUse" x="0" y="-75" width="1751" height="991">
<path d="M-6.10352e-05 915.75H1751V-74.25H-6.10352e-05V915.75Z" fill="white"/>
</mask>
<g mask="url(#mask15_60_102)">
<path d="M1164.55 729.107V746.362H1121.51V745.18C1124.92 745.18 1126.04 741.635 1126.04 736.08V699.148C1126.04 694.124 1125.1 690.52 1121.51 690.52V689.278H1163.49V704.288H1162.31C1160.9 690.579 1143.03 690.52 1139.68 690.52H1136.03V716.933H1140.09C1141.21 716.933 1151.61 716.933 1152.26 708.661H1153.49V726.507H1152.26C1151.61 718.175 1141.15 718.175 1140.09 718.175H1136.03V745.18H1139.38C1142.91 745.18 1160.78 745.357 1163.31 729.107H1164.55Z" fill="#6F7073"/>
</g>
<mask id="mask16_60_102" style="mask-type:luminance" maskUnits="userSpaceOnUse" x="0" y="-75" width="1751" height="991">
<path d="M-6.10352e-05 915.75H1751V-74.25H-6.10352e-05V915.75Z" fill="white"/>
</mask>
<g mask="url(#mask16_60_102)">
<path d="M1213.28 745.174V746.414H1195.29V745.174C1199.29 745.174 1195.17 739.501 1195.17 739.501L1189.82 731.287L1186.71 735.779C1184.94 738.437 1180.65 745.174 1189.65 745.174V746.414H1172.36V745.174C1174.13 745.174 1178.07 745.41 1185.83 734.774L1189.06 730.224L1177.83 713.5C1174.89 709.896 1173.48 710.191 1171.89 710.133V708.891H1189.71V710.133C1187.71 710.133 1186 711.373 1188.88 715.451L1194 723.192L1196.7 719.528C1198.05 717.4 1202.93 710.133 1194.23 710.133V708.891H1211.99V710.133C1209.99 710.191 1205.64 709.541 1197.47 720.533L1194.65 724.255L1205.99 741.451C1208.58 745.174 1211.99 745.174 1213.28 745.174Z" fill="#6F7073"/>
</g>
<mask id="mask17_60_102" style="mask-type:luminance" maskUnits="userSpaceOnUse" x="-1" y="-75" width="1752" height="991">
<path d="M-0.000183105 915.75H1751V-74.25H-0.000183105V915.75Z" fill="white"/>
</mask>
<g mask="url(#mask17_60_102)">
<path d="M1240.55 747.118C1236.67 747.118 1233.26 746.055 1230.8 744.341V759.704C1230.8 764.136 1231.21 765.968 1234.09 766.677V767.918H1219.04V766.677C1222.09 765.791 1222.21 763.84 1222.21 759.704V716.626C1222.21 713.79 1221.51 713.022 1218.21 712.136V710.954L1230.8 708.177V714.558C1233.26 710.008 1238.97 708.177 1242.91 708.177C1252.84 708.177 1259.95 715.977 1259.95 727.972C1259.95 740.795 1251.61 747.118 1240.55 747.118ZM1239.5 710.954C1234.44 710.954 1231.27 714.854 1230.8 719.994V735.005C1231.33 742.805 1235.79 745.877 1240.38 745.877C1246.02 745.877 1250.02 741.623 1250.02 728.918C1250.02 715.977 1246.32 710.954 1239.5 710.954Z" fill="#6F7073"/>
</g>
<mask id="mask18_60_102" style="mask-type:luminance" maskUnits="userSpaceOnUse" x="0" y="-75" width="1751" height="991">
<path d="M-6.10352e-05 915.75H1751V-74.25H-6.10352e-05V915.75Z" fill="white"/>
</mask>
<g mask="url(#mask18_60_102)">
<path d="M1301.39 736.653C1300.33 740.612 1295.69 747.113 1285.52 747.113C1275.23 747.113 1268 738.012 1268 727.907C1268 716.207 1275.64 708.17 1286.22 708.17C1296.8 708.17 1302.68 714.198 1302.68 726.903H1276.99C1277.52 736.357 1281.93 740.612 1287.75 741.499C1292.45 742.266 1298.51 739.961 1300.27 736.062L1301.39 736.653ZM1294.28 725.721C1294.28 714.671 1290.04 709.412 1285.87 709.412C1281.22 709.412 1276.99 716.679 1276.99 725.721H1294.28Z" fill="#6F7073"/>
</g>
<mask id="mask19_60_102" style="mask-type:luminance" maskUnits="userSpaceOnUse" x="-1" y="-75" width="1752" height="991">
<path d="M-0.000183105 915.75H1751V-74.25H-0.000183105V915.75Z" fill="white"/>
</mask>
<g mask="url(#mask19_60_102)">
<path d="M1336.9 709.801C1338.9 711.811 1338.9 715.179 1336.9 717.189C1334.9 719.197 1331.67 719.315 1329.49 717.247C1328.49 716.243 1328.02 714.942 1328.08 713.702C1328.26 712.578 1323.91 713.937 1321.14 719.079V737.634C1321.14 742.184 1321.56 744.371 1324.44 745.197V746.379H1309.27V745.197C1312.38 744.194 1312.5 741.83 1312.5 737.634V717.366C1312.5 714.588 1311.8 713.347 1308.5 712.165V710.925L1321.14 708.147V716.951C1324.79 710.865 1328.73 709.151 1331.32 708.501C1332.96 708.088 1335.43 708.442 1336.9 709.801Z" fill="#6F7073"/>
</g>
<mask id="mask20_60_102" style="mask-type:luminance" maskUnits="userSpaceOnUse" x="0" y="-75" width="1751" height="991">
<path d="M-6.10352e-05 915.75H1751V-74.25H-6.10352e-05V915.75Z" fill="white"/>
</mask>
<g mask="url(#mask20_60_102)">
<path d="M1368.6 739.737C1367.25 743.401 1362.96 747.123 1357.85 747.123C1351.79 747.123 1348.09 744.523 1348.09 734.714V710.132H1344.03L1343.79 708.891H1348.09V697.723L1356.67 696.364V708.891H1366.25L1365.96 710.132H1356.67V734.478C1356.67 739.973 1358.79 742.278 1362.73 742.278C1365.02 742.278 1366.9 740.565 1367.55 739.087L1368.6 739.737Z" fill="#6F7073"/>
</g>
<mask id="mask21_60_102" style="mask-type:luminance" maskUnits="userSpaceOnUse" x="0" y="-75" width="1751" height="991">
<path d="M-6.10352e-05 915.75H1751V-74.25H-6.10352e-05V915.75Z" fill="white"/>
</mask>
<g mask="url(#mask21_60_102)">
<path d="M1389.91 747.118C1380.15 747.118 1375.56 743.631 1375.56 743.631V732.995H1376.74C1377.62 737.308 1379.92 745.877 1389.91 745.877C1397.02 745.877 1397.02 737.958 1390.91 733.881L1382.74 728.918C1374.92 723.894 1372.98 718.222 1376.86 712.548C1376.86 712.548 1379.56 708.176 1387.73 708.176C1397.02 708.176 1400.96 710.717 1400.96 710.717V720.171H1399.73C1398.96 716.39 1396.55 709.417 1387.73 709.417C1381.27 709.417 1379.8 716.271 1386.85 720.763L1395.02 725.845C1402.26 730.395 1404.61 737.249 1400.67 742.922C1400.67 742.922 1397.73 747.118 1389.91 747.118Z" fill="#6F7073"/>
</g>
<path d="M875.784 219.453L939.11 235.855L951.618 199.846L875.784 219.453Z" fill="#82CDB3"/>
<path d="M799.967 199.833L812.475 235.843L875.801 219.441L799.967 199.833Z" fill="#82CDB3"/>
<path d="M799.967 199.833L875.801 219.441L951.593 199.833H799.967Z" fill="#2FAB81"/>
<path d="M939.102 235.843L887.373 384.918L1015.6 255.659L939.102 235.843Z" fill="#82CDB3"/>
<path d="M951.597 199.833L939.089 235.843L1015.59 255.617L951.597 199.833Z" fill="#2FAB81"/>
<path d="M812.463 235.843L735.967 255.659L864.192 384.918L812.463 235.843Z" fill="#82CDB3"/>
<path d="M799.968 199.833L735.979 255.617L812.475 235.843L799.968 199.833Z" fill="#2FAB81"/>
<path d="M524.17 485.536C531.97 485.536 538.27 486.736 543.07 489.136C547.87 491.416 552.37 494.116 556.57 497.236C558.13 498.436 559.33 499.036 560.17 499.036C562.45 499.036 563.95 495.376 564.67 488.056H568.81C568.57 492.496 568.39 497.896 568.27 504.256C568.15 510.616 568.09 519.016 568.09 529.456H563.95C563.11 524.416 562.09 519.556 560.89 514.876C559.69 510.196 557.71 506.176 554.95 502.816C551.47 498.376 546.91 494.956 541.27 492.556C535.63 490.036 529.81 488.776 523.81 488.776C517.81 488.776 512.35 490.276 507.43 493.276C502.63 496.156 498.49 500.356 495.01 505.876C491.53 511.396 488.83 518.056 486.91 525.856C485.11 533.536 484.21 542.236 484.21 551.956C484.21 573.556 487.69 589.396 494.65 599.476C501.61 609.436 512.41 614.416 527.05 614.416C531.37 614.416 535.09 613.816 538.21 612.616C541.45 611.296 543.97 610.036 545.77 608.836C548.05 607.276 549.49 605.836 550.09 604.516C550.69 603.076 550.99 601.216 550.99 598.936V581.656C550.99 576.736 550.51 573.076 549.55 570.676C548.59 568.276 546.79 566.656 544.15 565.816C541.63 564.976 537.85 564.496 532.81 564.376V560.776C534.97 560.896 537.49 561.016 540.37 561.136C543.25 561.136 546.25 561.196 549.37 561.316C552.61 561.316 555.55 561.316 558.19 561.316C562.15 561.316 565.69 561.256 568.81 561.136C572.05 561.016 574.75 560.896 576.91 560.776V564.376C574.27 564.496 572.29 564.916 570.97 565.636C569.65 566.356 568.75 567.796 568.27 569.956C567.91 572.116 567.73 575.416 567.73 579.856V615.496H564.13C564.01 613.456 563.53 611.236 562.69 608.836C561.97 606.436 560.83 605.236 559.27 605.236C558.55 605.236 557.83 605.416 557.11 605.776C556.39 606.136 555.13 606.976 553.33 608.296C549.37 611.296 545.17 613.696 540.73 615.496C536.29 617.176 531.13 618.016 525.25 618.016C512.89 618.016 502.27 615.496 493.39 610.456C484.63 605.296 477.91 597.916 473.23 588.316C468.55 578.716 466.21 567.256 466.21 553.936C466.21 539.896 468.73 527.776 473.77 517.576C478.81 507.376 485.65 499.516 494.29 493.996C503.05 488.356 513.01 485.536 524.17 485.536ZM680.432 488.056C679.952 492.256 679.592 496.336 679.352 500.296C679.232 504.256 679.172 507.256 679.172 509.296C679.172 511.456 679.232 513.556 679.352 515.596C679.472 517.516 679.592 519.136 679.712 520.456H675.572C674.852 513.376 673.832 507.796 672.512 503.716C671.192 499.516 668.912 496.576 665.672 494.896C662.552 493.096 657.812 492.196 651.452 492.196H636.512C632.432 492.196 629.312 492.556 627.152 493.276C625.112 493.876 623.732 495.256 623.012 497.416C622.292 499.456 621.932 502.696 621.932 507.136V596.416C621.932 600.736 622.292 603.976 623.012 606.136C623.732 608.296 625.112 609.736 627.152 610.456C629.312 611.056 632.432 611.356 636.512 611.356H649.652C657.212 611.356 662.912 610.336 666.752 608.296C670.712 606.256 673.532 602.956 675.212 598.396C677.012 593.716 678.332 587.416 679.172 579.496H683.312C682.952 582.736 682.772 587.056 682.772 592.456C682.772 594.736 682.832 598.036 682.952 602.356C683.192 606.556 683.552 610.936 684.032 615.496C677.912 615.256 671.012 615.136 663.332 615.136C655.652 615.016 648.812 614.956 642.812 614.956C640.172 614.956 636.752 614.956 632.552 614.956C628.472 614.956 624.032 615.016 619.232 615.136C614.432 615.136 609.572 615.196 604.652 615.316C599.732 615.316 595.052 615.376 590.612 615.496V611.896C594.692 611.656 597.752 611.176 599.792 610.456C601.952 609.736 603.392 608.296 604.112 606.136C604.832 603.976 605.192 600.736 605.192 596.416V507.136C605.192 502.696 604.832 499.456 604.112 497.416C603.392 495.256 601.952 493.816 599.792 493.096C597.752 492.256 594.692 491.776 590.612 491.656V488.056C595.052 488.176 599.732 488.296 604.652 488.416C609.572 488.416 614.432 488.476 619.232 488.596C624.032 488.596 628.472 488.596 632.552 488.596C636.752 488.596 640.172 488.596 642.812 488.596C648.332 488.596 654.572 488.596 661.532 488.596C668.612 488.476 674.912 488.296 680.432 488.056ZM649.472 549.616C649.472 549.616 649.472 550.216 649.472 551.416C649.472 552.616 649.472 553.216 649.472 553.216H616.532C616.532 553.216 616.532 552.616 616.532 551.416C616.532 550.216 616.532 549.616 616.532 549.616H649.472ZM654.692 525.856C654.212 532.696 653.972 537.916 653.972 541.516C654.092 545.116 654.152 548.416 654.152 551.416C654.152 554.416 654.212 557.716 654.332 561.316C654.452 564.916 654.752 570.136 655.232 576.976H651.092C650.612 573.136 650.012 569.416 649.292 565.816C648.692 562.096 647.252 559.096 644.972 556.816C642.812 554.416 639.092 553.216 633.812 553.216V549.616C637.772 549.616 640.772 548.836 642.812 547.276C644.972 545.596 646.532 543.496 647.492 540.976C648.452 538.456 649.112 535.876 649.472 533.236C649.832 530.476 650.192 528.016 650.552 525.856H654.692ZM841.96 488.056V491.656C837.88 491.776 834.76 492.256 832.6 493.096C830.56 493.816 829.18 495.256 828.46 497.416C827.74 499.456 827.38 502.696 827.38 507.136V596.416C827.38 600.736 827.74 603.976 828.46 606.136C829.18 608.296 830.56 609.736 832.6 610.456C834.76 611.176 837.88 611.656 841.96 611.896V615.496C839.2 615.256 835.72 615.136 831.52 615.136C827.44 615.016 823.3 614.956 819.1 614.956C814.42 614.956 810.04 615.016 805.96 615.136C801.88 615.136 798.58 615.256 796.06 615.496V611.896C800.14 611.656 803.2 611.176 805.24 610.456C807.4 609.736 808.84 608.296 809.56 606.136C810.28 603.976 810.64 600.736 810.64 596.416V497.416L811.36 497.956L767.26 616.396H764.38L719.02 499.576V594.616C719.02 598.936 719.38 602.356 720.1 604.876C720.94 607.276 722.5 609.016 724.78 610.096C727.18 611.056 730.72 611.656 735.4 611.896V615.496C733.24 615.256 730.42 615.136 726.94 615.136C723.46 615.016 720.16 614.956 717.04 614.956C714.04 614.956 710.98 615.016 707.86 615.136C704.86 615.136 702.34 615.256 700.3 615.496V611.896C704.38 611.656 707.44 611.056 709.48 610.096C711.64 609.016 713.08 607.276 713.8 604.876C714.52 602.356 714.88 598.936 714.88 594.616V507.136C714.88 502.696 714.52 499.456 713.8 497.416C713.08 495.256 711.64 493.816 709.48 493.096C707.44 492.256 704.38 491.776 700.3 491.656V488.056C702.34 488.176 704.86 488.296 707.86 488.416C710.98 488.536 714.04 488.596 717.04 488.596C719.68 488.596 722.38 488.536 725.14 488.416C728.02 488.296 730.42 488.176 732.34 488.056L773.2 595.696L770.14 597.136L810.64 488.596C812.08 488.596 813.46 488.596 814.78 488.596C816.22 488.596 817.66 488.596 819.1 488.596C823.3 488.596 827.44 488.536 831.52 488.416C835.72 488.296 839.2 488.176 841.96 488.056ZM895.617 486.076C901.617 486.076 906.177 486.796 909.297 488.236C912.417 489.556 915.177 491.056 917.577 492.736C919.017 493.576 920.157 494.236 920.997 494.716C921.957 495.076 922.857 495.256 923.697 495.256C924.897 495.256 925.737 494.596 926.217 493.276C926.817 491.956 927.297 489.976 927.657 487.336H931.797C931.677 489.376 931.497 491.836 931.257 494.716C931.137 497.476 931.017 501.196 930.897 505.876C930.897 510.436 930.897 516.496 930.897 524.056H926.757C926.397 518.296 925.137 512.776 922.977 507.496C920.817 502.216 917.637 497.896 913.437 494.536C909.357 491.176 903.957 489.496 897.237 489.496C890.877 489.496 885.597 491.416 881.397 495.256C877.317 499.096 875.277 504.136 875.277 510.376C875.277 515.776 876.657 520.336 879.417 524.056C882.177 527.656 885.837 530.956 890.397 533.956C895.077 536.836 900.117 539.956 905.517 543.316C911.757 547.156 917.277 550.996 922.077 554.836C926.997 558.556 930.837 562.696 933.597 567.256C936.477 571.816 937.917 577.336 937.917 583.816C937.917 591.496 936.177 597.856 932.697 602.896C929.217 607.936 924.597 611.716 918.837 614.236C913.077 616.756 906.717 618.016 899.757 618.016C893.397 618.016 888.357 617.296 884.637 615.856C880.917 614.416 877.737 612.916 875.097 611.356C872.457 609.676 870.417 608.836 868.977 608.836C867.777 608.836 866.877 609.496 866.277 610.816C865.797 612.136 865.377 614.116 865.017 616.756H860.877C861.117 614.236 861.237 611.296 861.237 607.936C861.357 604.456 861.417 599.956 861.417 594.436C861.537 588.916 861.597 581.956 861.597 573.556H865.737C866.217 580.756 867.537 587.476 869.697 593.716C871.977 599.956 875.397 604.996 879.957 608.836C884.637 612.556 890.817 614.416 898.497 614.416C902.457 614.416 906.177 613.636 909.657 612.076C913.257 610.396 916.197 607.816 918.477 604.336C920.757 600.736 921.897 596.116 921.897 590.476C921.897 585.556 920.697 581.296 918.297 577.696C916.017 573.976 912.777 570.556 908.577 567.436C904.377 564.196 899.457 560.896 893.817 557.536C888.177 554.056 882.897 550.516 877.977 546.916C873.057 543.316 869.097 539.176 866.097 534.496C863.217 529.696 861.777 523.936 861.777 517.216C861.777 510.136 863.337 504.316 866.457 499.756C869.697 495.076 873.897 491.656 879.057 489.496C884.217 487.216 889.737 486.076 895.617 486.076ZM1053.3 488.056C1052.82 492.616 1052.46 497.056 1052.22 501.376C1052.1 505.576 1052.04 508.816 1052.04 511.096C1052.04 513.976 1052.1 516.676 1052.22 519.196C1052.34 521.716 1052.46 523.936 1052.58 525.856H1048.44C1047.6 517.456 1046.46 510.856 1045.02 506.056C1043.58 501.136 1041.06 497.596 1037.46 495.436C1033.86 493.276 1028.28 492.196 1020.72 492.196H1011V594.616C1011 599.416 1011.42 603.016 1012.26 605.416C1013.22 607.816 1015.02 609.436 1017.66 610.276C1020.3 611.116 1024.14 611.656 1029.18 611.896V615.496C1026.06 615.256 1022.1 615.136 1017.3 615.136C1012.5 615.016 1007.64 614.956 1002.72 614.956C997.324 614.956 992.224 615.016 987.424 615.136C982.744 615.136 978.964 615.256 976.084 615.496V611.896C981.124 611.656 984.964 611.116 987.604 610.276C990.244 609.436 991.984 607.816 992.824 605.416C993.784 603.016 994.264 599.416 994.264 594.616V492.196H984.544C977.104 492.196 971.524 493.276 967.804 495.436C964.204 497.596 961.684 501.136 960.244 506.056C958.804 510.856 957.664 517.456 956.824 525.856H952.684C952.924 523.936 953.044 521.716 953.044 519.196C953.164 516.676 953.224 513.976 953.224 511.096C953.224 508.816 953.104 505.576 952.864 501.376C952.744 497.056 952.444 492.616 951.964 488.056C957.004 488.176 962.464 488.296 968.344 488.416C974.344 488.536 980.344 488.596 986.344 488.596C992.344 488.596 997.804 488.596 1002.72 488.596C1007.64 488.596 1013.04 488.596 1018.92 488.596C1024.92 488.596 1030.92 488.536 1036.92 488.416C1042.92 488.296 1048.38 488.176 1053.3 488.056ZM1108.24 487.156L1152.16 600.376C1153.96 604.936 1156 607.996 1158.28 609.556C1160.56 610.996 1162.66 611.776 1164.58 611.896V615.496C1162.18 615.256 1159.24 615.136 1155.76 615.136C1152.28 615.016 1148.8 614.956 1145.32 614.956C1140.64 614.956 1136.26 615.016 1132.18 615.136C1128.1 615.136 1124.8 615.256 1122.28 615.496V611.896C1128.4 611.656 1132.3 610.636 1133.98 608.836C1135.66 606.916 1135.3 602.896 1132.9 596.776L1099.42 507.316L1102.3 504.976L1070.98 586.336C1069.06 591.136 1067.92 595.216 1067.56 598.576C1067.2 601.816 1067.5 604.396 1068.46 606.316C1069.54 608.236 1071.28 609.616 1073.68 610.456C1076.2 611.296 1079.32 611.776 1083.04 611.896V615.496C1079.68 615.256 1076.14 615.136 1072.42 615.136C1068.82 615.016 1065.46 614.956 1062.34 614.956C1059.34 614.956 1056.76 615.016 1054.6 615.136C1052.56 615.136 1050.64 615.256 1048.84 615.496V611.896C1051.24 611.296 1053.7 609.916 1056.22 607.756C1058.74 605.476 1061.02 601.636 1063.06 596.236L1105.36 487.156C1105.84 487.156 1106.32 487.156 1106.8 487.156C1107.28 487.156 1107.76 487.156 1108.24 487.156ZM1130.2 563.656V567.256H1076.56L1078.36 563.656H1130.2ZM1167.53 488.056C1170.05 488.176 1173.35 488.296 1177.43 488.416C1181.51 488.536 1185.53 488.596 1189.49 488.596C1195.13 488.596 1200.53 488.536 1205.69 488.416C1210.85 488.296 1214.51 488.236 1216.67 488.236C1226.39 488.236 1234.43 489.616 1240.79 492.376C1247.27 495.136 1252.07 498.916 1255.19 503.716C1258.43 508.396 1260.05 513.676 1260.05 519.556C1260.05 523.156 1259.33 526.996 1257.89 531.076C1256.45 535.156 1253.93 538.996 1250.33 542.596C1246.85 546.196 1242.05 549.196 1235.93 551.596C1229.81 553.876 1222.07 555.016 1212.71 555.016H1195.43V551.416H1210.91C1219.43 551.416 1225.91 550.096 1230.35 547.456C1234.91 544.696 1237.97 541.096 1239.53 536.656C1241.21 532.096 1242.05 527.056 1242.05 521.536C1242.05 512.056 1239.77 504.736 1235.21 499.576C1230.77 494.296 1223.09 491.656 1212.17 491.656C1206.65 491.656 1203.05 492.676 1201.37 494.716C1199.69 496.756 1198.85 500.896 1198.85 507.136V596.416C1198.85 600.736 1199.21 603.976 1199.93 606.136C1200.65 608.296 1202.03 609.736 1204.07 610.456C1206.23 611.176 1209.35 611.656 1213.43 611.896V615.496C1210.67 615.256 1207.19 615.136 1202.99 615.136C1198.91 615.016 1194.77 614.956 1190.57 614.956C1185.89 614.956 1181.51 615.016 1177.43 615.136C1173.35 615.136 1170.05 615.256 1167.53 615.496V611.896C1171.61 611.656 1174.67 611.176 1176.71 610.456C1178.87 609.736 1180.31 608.296 1181.03 606.136C1181.75 603.976 1182.11 600.736 1182.11 596.416V507.136C1182.11 502.696 1181.75 499.456 1181.03 497.416C1180.31 495.256 1178.87 493.816 1176.71 493.096C1174.67 492.256 1171.61 491.776 1167.53 491.656V488.056ZM1196.15 551.956C1202.63 552.196 1207.73 552.496 1211.45 552.856C1215.17 553.096 1218.17 553.336 1220.45 553.576C1222.85 553.816 1225.13 554.116 1227.29 554.476C1235.33 555.796 1241.09 558.256 1244.57 561.856C1248.17 565.336 1250.81 570.796 1252.49 578.236L1256.99 596.596C1258.19 601.876 1259.39 605.716 1260.59 608.116C1261.91 610.396 1263.89 611.476 1266.53 611.356C1268.57 611.236 1270.25 610.576 1271.57 609.376C1273.01 608.176 1274.51 606.556 1276.07 604.516L1278.77 606.496C1276.25 610.216 1273.61 613.096 1270.85 615.136C1268.21 617.056 1264.43 618.016 1259.51 618.016C1255.07 618.016 1251.17 616.696 1247.81 614.056C1244.45 611.416 1241.93 606.256 1240.25 598.576L1236.29 580.576C1235.21 575.416 1233.95 570.976 1232.51 567.256C1231.19 563.416 1229.27 560.416 1226.75 558.256C1224.35 556.096 1220.75 555.016 1215.95 555.016H1196.51L1196.15 551.956Z" fill="#231F20"/>
</g>
<defs>
<clipPath id="clip0_60_102">
<rect width="1751" height="990" fill="white"/>
</clipPath>
</defs>
</svg>
